<mxfile host="app.diagrams.net" modified="2023-06-27T10:07:35.787Z" agent="Mozilla/5.0 (Windows NT 10.0; Win64; x64) AppleWebKit/537.36 (KHTML, like Gecko) Chrome/114.0.0.0 Safari/537.36" version="21.5.0" etag="UT5AI8ylBbIfLx5bsc2I" type="github">
  <diagram name="Page-1" id="sfUCCH89T9FOtEMAEFw9">
    <mxGraphModel>
      <root>
        <mxCell id="0" />
        <mxCell id="1" parent="0" />
      </root>
    </mxGraphModel>
  </diagram>
</mxfile>
